<svg width="22" height="17" viewBox="0 0 22 17" fill="none" xmlns="http://www.w3.org/2000/svg">
<path d="M20.371 2.87494L1.63036 2.87494C1.28551 2.87494 1.0057 2.45491 1.00572 1.93747C1.00574 1.41995 1.28564 0.999999 1.63043 0.999999L20.3711 1C20.7159 1 20.9957 1.42003 20.9957 1.93747C20.9957 2.45491 20.7158 2.87494 20.371 2.87494Z" fill="#ec7160" stroke="white" stroke-width="0.2"/>
<path d="M1.63044 7.5625L20.3711 7.5625C20.7159 7.5625 20.9957 7.98253 20.9957 8.49997C20.9957 9.0174 20.7158 9.43743 20.371 9.43743L1.63036 9.43743C1.28552 9.43743 1.0057 9.0174 1.00573 8.49996C1.00575 7.98253 1.2856 7.5625 1.63044 7.5625Z" fill="#ec7160" stroke="white" stroke-width="0.2"/>
<path d="M1.63081 14.125L14.1244 14.125C14.4692 14.125 14.7489 14.545 14.7487 15.0625C14.7485 15.58 14.4685 15.9999 14.1237 15.9999L1.63012 15.9999C1.28528 15.9999 1.00561 15.5799 1.0058 15.0625C1.00594 14.545 1.28597 14.125 1.63081 14.125Z" fill="#ec7160" stroke="white" stroke-width="0.2"/>
</svg>
